<svg width="16" height="20" viewBox="0 0 16 20" fill="none" xmlns="http://www.w3.org/2000/svg">
<path fill-rule="evenodd" clip-rule="evenodd" d="M9.14871 4.1872C8.77698 4.33493 8.39085 4.41227 7.98925 4.4016C7.91298 4.40053 7.88365 4.38027 7.87938 4.29973C7.81698 3.53973 8.02071 2.84427 8.38711 2.18933C9.01325 1.07093 9.96578 0.380267 11.2036 0.0768C11.3095 0.0501394 11.4185 0.0360759 11.5336 0.0212228C11.5843 0.0146826 11.6362 0.00798928 11.6895 0C11.6914 0.0508867 11.6938 0.0989917 11.696 0.145421C11.6994 0.215779 11.7026 0.28229 11.7039 0.3488C11.7306 1.72053 10.8442 3.51413 9.14871 4.1872ZM15.5651 14.1451C15.5848 14.0871 15.6042 14.03 15.6239 13.9744C14.1252 13.2288 13.2111 12.08 13.0975 10.3819C12.985 8.6848 13.7599 7.43147 15.121 6.48267C15.1116 6.46812 15.0981 6.44863 15.0852 6.43L15.0799 6.4224C14.5402 5.66507 13.8255 5.14507 12.9471 4.8512C12.3274 4.64373 11.6906 4.55893 11.0378 4.61173C10.6015 4.6464 10.1834 4.76907 9.77218 4.91893C9.37111 5.06773 8.97111 5.21973 8.57165 5.37227C8.21058 5.5104 7.85165 5.5104 7.49111 5.37493C7.09965 5.22827 6.70871 5.08053 6.31885 4.9312C5.57805 4.64587 4.82231 4.5712 4.04525 4.75413C2.75351 5.05653 1.77165 5.78987 1.07565 6.90933C0.520981 7.8 0.279914 8.78827 0.218581 9.82613C0.166314 10.6917 0.251648 11.5456 0.429781 12.3925C0.843114 14.3621 1.69911 16.1205 2.97431 17.6757C3.24365 18.0032 3.53165 18.3125 3.87458 18.5664C4.15085 18.7707 4.44845 18.9291 4.78871 18.9925C5.17858 19.0661 5.56151 19.016 5.93058 18.8923C6.15255 18.8175 6.36959 18.7285 6.58659 18.6396C6.68086 18.6009 6.77512 18.5623 6.86978 18.5248C7.73645 18.1824 8.61271 18.1403 9.49378 18.4603C9.66961 18.5242 9.84208 18.5979 10.0145 18.6717C10.1083 18.7118 10.2021 18.7519 10.2964 18.7904C10.666 18.9408 11.0495 19.0133 11.449 19.0005C11.9807 18.9819 12.4404 18.7776 12.8399 18.4395C13.042 18.2693 13.2378 18.0859 13.4058 17.8832C14.2762 16.8421 14.9935 15.7061 15.466 14.4267C15.5012 14.3328 15.5335 14.2379 15.5651 14.1451Z" fill="black"/>
</svg>
