<svg width="21" height="21" viewBox="0 0 21 21" fill="none" xmlns="http://www.w3.org/2000/svg">
<path d="M5.62837 12.3255L5.01922 14.5995L2.79279 14.6466C2.12741 13.4125 1.75 12.0005 1.75 10.5C1.75 9.04903 2.10287 7.68075 2.72836 6.47595H2.72884L4.71099 6.83935L5.57929 8.8096C5.39755 9.33942 5.2985 9.90817 5.2985 10.5C5.29857 11.1423 5.41492 11.7577 5.62837 12.3255Z" fill="#FBBB00"/>
<path d="M19.0971 8.86536C19.1976 9.39466 19.25 9.9413 19.25 10.5C19.25 11.1264 19.1842 11.7375 19.0587 12.3269C18.6327 14.3327 17.5197 16.0841 15.9779 17.3235L15.9775 17.3231L13.4808 17.1957L13.1275 14.9899C14.1505 14.3899 14.9501 13.4509 15.3712 12.3269H10.6924V8.86536H15.4395H19.0971V8.86536Z" fill="#518EF8"/>
<path d="M15.9773 17.3231L15.9778 17.3236C14.4783 18.5289 12.5735 19.2501 10.4999 19.2501C7.16772 19.2501 4.27062 17.3876 2.79272 14.6467L5.62831 12.3256C6.36724 14.2977 8.26964 15.7015 10.4999 15.7015C11.4586 15.7015 12.3567 15.4424 13.1273 14.99L15.9773 17.3231Z" fill="#28B446"/>
<path d="M16.085 3.76441L13.2504 6.08508C12.4528 5.58653 11.51 5.29853 10.4999 5.29853C8.21914 5.29853 6.28115 6.76679 5.57923 8.80961L2.72875 6.47596H2.72827C4.18453 3.66827 7.11817 1.75 10.4999 1.75C12.623 1.75 14.5696 2.50626 16.085 3.76441Z" fill="#F14336"/>
</svg>
