<svg width="935" height="751" viewBox="0 0 935 751" fill="none" xmlns="http://www.w3.org/2000/svg">
<circle cx="183.696" cy="567.205" r="132.312" transform="rotate(-34.0259 183.696 567.205)" fill="white" stroke="black" stroke-opacity="0.1"/>
<circle cx="206.384" cy="551.886" r="132.312" transform="rotate(-34.0259 206.384 551.886)" fill="white" stroke="black" stroke-opacity="0.1"/>
<circle cx="229.072" cy="536.568" r="132.312" transform="rotate(-34.0259 229.072 536.568)" fill="white" stroke="black" stroke-opacity="0.1"/>
<circle cx="251.76" cy="521.25" r="132.312" transform="rotate(-34.0259 251.76 521.25)" fill="white" stroke="black" stroke-opacity="0.1"/>
<circle cx="274.448" cy="505.932" r="132.312" transform="rotate(-34.0259 274.448 505.932)" fill="white" stroke="black" stroke-opacity="0.1"/>
<circle cx="297.136" cy="490.614" r="132.312" transform="rotate(-34.0259 297.136 490.614)" fill="white" stroke="black" stroke-opacity="0.1"/>
<circle cx="319.824" cy="475.296" r="132.312" transform="rotate(-34.0259 319.824 475.296)" fill="white" stroke="black" stroke-opacity="0.1"/>
<circle cx="342.512" cy="459.978" r="132.312" transform="rotate(-34.0259 342.512 459.978)" fill="white" stroke="black" stroke-opacity="0.1"/>
<circle cx="365.2" cy="444.659" r="132.312" transform="rotate(-34.0259 365.2 444.659)" fill="white" stroke="black" stroke-opacity="0.1"/>
<circle cx="387.888" cy="429.341" r="132.312" transform="rotate(-34.0259 387.888 429.341)" fill="white" stroke="black" stroke-opacity="0.1"/>
<circle cx="410.576" cy="414.023" r="132.312" transform="rotate(-34.0259 410.576 414.023)" fill="white" stroke="black" stroke-opacity="0.1"/>
<circle cx="433.264" cy="398.705" r="132.312" transform="rotate(-34.0259 433.264 398.705)" fill="white" stroke="black" stroke-opacity="0.1"/>
<circle cx="455.952" cy="383.387" r="132.312" transform="rotate(-34.0259 455.952 383.387)" fill="white" stroke="black" stroke-opacity="0.1"/>
<circle cx="478.64" cy="368.069" r="132.312" transform="rotate(-34.0259 478.64 368.069)" fill="white" stroke="black" stroke-opacity="0.1"/>
<circle cx="501.328" cy="352.751" r="132.312" transform="rotate(-34.0259 501.328 352.751)" fill="white" stroke="black" stroke-opacity="0.1"/>
<circle cx="524.016" cy="337.432" r="132.312" transform="rotate(-34.0259 524.016 337.432)" fill="white" stroke="black" stroke-opacity="0.1"/>
<circle cx="546.704" cy="322.114" r="132.312" transform="rotate(-34.0259 546.704 322.114)" fill="white" stroke="black" stroke-opacity="0.1"/>
<circle cx="569.392" cy="306.796" r="132.312" transform="rotate(-34.0259 569.392 306.796)" fill="white" stroke="black" stroke-opacity="0.1"/>
<circle cx="592.08" cy="291.478" r="132.312" transform="rotate(-34.0259 592.08 291.478)" fill="white" stroke="black" stroke-opacity="0.1"/>
<circle cx="614.768" cy="276.16" r="132.312" transform="rotate(-34.0259 614.768 276.16)" fill="white" stroke="black" stroke-opacity="0.1"/>
<circle cx="637.456" cy="260.842" r="132.312" transform="rotate(-34.0259 637.456 260.842)" fill="white" stroke="black" stroke-opacity="0.1"/>
<circle cx="660.144" cy="245.523" r="132.312" transform="rotate(-34.0259 660.144 245.523)" fill="white" stroke="black" stroke-opacity="0.1"/>
<circle cx="682.832" cy="230.205" r="132.312" transform="rotate(-34.0259 682.832 230.205)" fill="white" stroke="black" stroke-opacity="0.1"/>
<circle cx="705.52" cy="214.887" r="132.312" transform="rotate(-34.0259 705.52 214.887)" fill="white" stroke="black" stroke-opacity="0.1"/>
<circle cx="728.208" cy="199.569" r="132.312" transform="rotate(-34.0259 728.208 199.569)" fill="white" stroke="black" stroke-opacity="0.1"/>
<circle cx="750.896" cy="184.251" r="132.312" transform="rotate(-34.0259 750.896 184.251)" fill="white" stroke="black" stroke-opacity="0.1"/>
</svg>
