<svg width="993" height="819" viewBox="0 0 993 819" fill="none" xmlns="http://www.w3.org/2000/svg">
<ellipse cx="169.178" cy="266.039" rx="122.072" ry="122.072" transform="rotate(32.9563 169.178 266.039)" fill="white" stroke="black" stroke-opacity="0.1"/>
<ellipse cx="195.356" cy="277.489" rx="122.072" ry="122.072" transform="rotate(32.9563 195.356 277.489)" fill="white" stroke="black" stroke-opacity="0.1"/>
<ellipse cx="221.534" cy="288.938" rx="122.072" ry="122.072" transform="rotate(32.9563 221.534 288.938)" fill="white" stroke="black" stroke-opacity="0.1"/>
<ellipse cx="247.712" cy="300.388" rx="122.072" ry="122.072" transform="rotate(32.9563 247.712 300.388)" fill="white" stroke="black" stroke-opacity="0.1"/>
<ellipse cx="273.89" cy="311.837" rx="122.072" ry="122.072" transform="rotate(32.9563 273.89 311.837)" fill="white" stroke="black" stroke-opacity="0.1"/>
<ellipse cx="300.069" cy="323.287" rx="122.072" ry="122.072" transform="rotate(32.9563 300.069 323.287)" fill="white" stroke="black" stroke-opacity="0.1"/>
<ellipse cx="326.247" cy="334.736" rx="122.072" ry="122.072" transform="rotate(32.9563 326.247 334.736)" fill="white" stroke="black" stroke-opacity="0.1"/>
<ellipse cx="352.425" cy="346.186" rx="122.072" ry="122.072" transform="rotate(32.9563 352.425 346.186)" fill="white" stroke="black" stroke-opacity="0.1"/>
<ellipse cx="378.603" cy="357.635" rx="122.072" ry="122.072" transform="rotate(32.9563 378.603 357.635)" fill="white" stroke="black" stroke-opacity="0.1"/>
<ellipse cx="404.781" cy="369.085" rx="122.072" ry="122.072" transform="rotate(32.9563 404.781 369.085)" fill="white" stroke="black" stroke-opacity="0.1"/>
<ellipse cx="430.959" cy="380.534" rx="122.072" ry="122.072" transform="rotate(32.9563 430.959 380.534)" fill="white" stroke="black" stroke-opacity="0.1"/>
<ellipse cx="457.137" cy="391.984" rx="122.072" ry="122.072" transform="rotate(32.9563 457.137 391.984)" fill="white" stroke="black" stroke-opacity="0.1"/>
<ellipse cx="483.315" cy="403.433" rx="122.072" ry="122.072" transform="rotate(32.9563 483.315 403.433)" fill="white" stroke="black" stroke-opacity="0.1"/>
<ellipse cx="509.495" cy="414.883" rx="122.072" ry="122.072" transform="rotate(32.9563 509.495 414.883)" fill="white" stroke="black" stroke-opacity="0.1"/>
<ellipse cx="535.672" cy="426.332" rx="122.072" ry="122.072" transform="rotate(32.9563 535.672 426.332)" fill="white" stroke="black" stroke-opacity="0.1"/>
<ellipse cx="561.85" cy="437.782" rx="122.072" ry="122.072" transform="rotate(32.9563 561.85 437.782)" fill="white" stroke="black" stroke-opacity="0.1"/>
<ellipse cx="588.028" cy="449.231" rx="122.072" ry="122.072" transform="rotate(32.9563 588.028 449.231)" fill="white" stroke="black" stroke-opacity="0.1"/>
<ellipse cx="614.206" cy="460.681" rx="122.072" ry="122.072" transform="rotate(32.9563 614.206 460.681)" fill="white" stroke="black" stroke-opacity="0.1"/>
<ellipse cx="640.384" cy="472.131" rx="122.072" ry="122.072" transform="rotate(32.9563 640.384 472.131)" fill="white" stroke="black" stroke-opacity="0.1"/>
<ellipse cx="666.562" cy="483.58" rx="122.072" ry="122.072" transform="rotate(32.9563 666.562 483.58)" fill="white" stroke="black" stroke-opacity="0.1"/>
<ellipse cx="692.742" cy="495.029" rx="122.072" ry="122.072" transform="rotate(32.9563 692.742 495.029)" fill="white" stroke="black" stroke-opacity="0.1"/>
<ellipse cx="718.92" cy="506.479" rx="122.072" ry="122.072" transform="rotate(32.9563 718.92 506.479)" fill="white" stroke="black" stroke-opacity="0.1"/>
<ellipse cx="745.098" cy="517.928" rx="122.072" ry="122.072" transform="rotate(32.9563 745.098 517.928)" fill="white" stroke="black" stroke-opacity="0.1"/>
<ellipse cx="771.276" cy="529.378" rx="122.072" ry="122.072" transform="rotate(32.9563 771.276 529.378)" fill="white" stroke="black" stroke-opacity="0.1"/>
<ellipse cx="797.454" cy="540.828" rx="122.072" ry="122.072" transform="rotate(32.9563 797.454 540.828)" fill="white" stroke="black" stroke-opacity="0.1"/>
<ellipse cx="823.632" cy="552.277" rx="122.072" ry="122.072" transform="rotate(32.9563 823.632 552.277)" fill="white" stroke="black" stroke-opacity="0.1"/>
</svg>
