<svg width="390" height="844" viewBox="0 0 390 844" fill="none" xmlns="http://www.w3.org/2000/svg">
<g clip-path="url(#clip0_32_2075)">
<rect width="390" height="844" fill="white"/>
<circle cx="73.8941" cy="182.872" r="103.644" transform="rotate(-34.0259 73.8941 182.872)" fill="white" stroke="black" stroke-opacity="0.15" stroke-width="0.5"/>
<circle cx="91.6664" cy="170.872" r="103.644" transform="rotate(-34.0259 91.6664 170.872)" fill="white" stroke="black" stroke-opacity="0.15" stroke-width="0.5"/>
<circle cx="109.438" cy="158.873" r="103.644" transform="rotate(-34.0259 109.438 158.873)" fill="white" stroke="black" stroke-opacity="0.15" stroke-width="0.5"/>
<circle cx="127.21" cy="146.874" r="103.644" transform="rotate(-34.0259 127.21 146.874)" fill="white" stroke="black" stroke-opacity="0.15" stroke-width="0.5"/>
<circle cx="144.982" cy="134.875" r="103.644" transform="rotate(-34.0259 144.982 134.875)" fill="white" stroke="black" stroke-opacity="0.15" stroke-width="0.5"/>
<circle cx="162.755" cy="122.876" r="103.644" transform="rotate(-34.0259 162.755 122.876)" fill="white" stroke="black" stroke-opacity="0.15" stroke-width="0.5"/>
<circle cx="180.526" cy="110.877" r="103.644" transform="rotate(-34.0259 180.526 110.877)" fill="white" stroke="black" stroke-opacity="0.15" stroke-width="0.5"/>
<circle cx="198.299" cy="98.8779" r="103.644" transform="rotate(-34.0259 198.299 98.8779)" fill="white" stroke="black" stroke-opacity="0.15" stroke-width="0.5"/>
<circle cx="216.071" cy="86.879" r="103.644" transform="rotate(-34.0259 216.071 86.879)" fill="white" stroke="black" stroke-opacity="0.15" stroke-width="0.5"/>
<circle cx="233.843" cy="74.8798" r="103.644" transform="rotate(-34.0259 233.843 74.8798)" fill="white" stroke="black" stroke-opacity="0.15" stroke-width="0.5"/>
<circle cx="251.615" cy="62.8806" r="103.644" transform="rotate(-34.0259 251.615 62.8806)" fill="white" stroke="black" stroke-opacity="0.15" stroke-width="0.5"/>
<circle cx="269.386" cy="50.8814" r="103.644" transform="rotate(-34.0259 269.386 50.8814)" fill="white" stroke="black" stroke-opacity="0.15" stroke-width="0.5"/>
<circle cx="287.159" cy="38.8825" r="103.644" transform="rotate(-34.0259 287.159 38.8825)" fill="white" stroke="black" stroke-opacity="0.15" stroke-width="0.5"/>
<circle cx="304.931" cy="26.8833" r="103.644" transform="rotate(-34.0259 304.931 26.8833)" fill="white" stroke="black" stroke-opacity="0.15" stroke-width="0.5"/>
<circle cx="322.703" cy="14.8842" r="103.644" transform="rotate(-34.0259 322.703 14.8842)" fill="white" stroke="black" stroke-opacity="0.15" stroke-width="0.5"/>
<circle cx="340.475" cy="2.88521" r="103.644" transform="rotate(-34.0259 340.475 2.88521)" fill="white" stroke="black" stroke-opacity="0.15" stroke-width="0.5"/>
<circle cx="358.248" cy="-9.11394" r="103.644" transform="rotate(-34.0259 358.248 -9.11394)" fill="white" stroke="black" stroke-opacity="0.15" stroke-width="0.5"/>
<circle cx="376.019" cy="-21.1131" r="103.644" transform="rotate(-34.0259 376.019 -21.1131)" fill="white" stroke="black" stroke-opacity="0.15" stroke-width="0.5"/>
<circle cx="393.792" cy="-33.112" r="103.644" transform="rotate(-34.0259 393.792 -33.112)" fill="white" stroke="black" stroke-opacity="0.15" stroke-width="0.5"/>
<circle cx="411.563" cy="-45.1113" r="103.644" transform="rotate(-34.0259 411.563 -45.1113)" fill="white" stroke="black" stroke-opacity="0.15" stroke-width="0.5"/>
<circle cx="429.335" cy="-57.1104" r="103.644" transform="rotate(-34.0259 429.335 -57.1104)" fill="white" stroke="black" stroke-opacity="0.15" stroke-width="0.5"/>
<circle cx="447.108" cy="-69.1093" r="103.644" transform="rotate(-34.0259 447.108 -69.1093)" fill="white" stroke="black" stroke-opacity="0.15" stroke-width="0.5"/>
<circle cx="464.88" cy="-81.1083" r="103.644" transform="rotate(-34.0259 464.88 -81.1083)" fill="white" stroke="black" stroke-opacity="0.15" stroke-width="0.5"/>
<circle cx="482.652" cy="-93.1075" r="103.644" transform="rotate(-34.0259 482.652 -93.1075)" fill="white" stroke="black" stroke-opacity="0.15" stroke-width="0.5"/>
<circle cx="500.423" cy="-105.107" r="103.644" transform="rotate(-34.0259 500.423 -105.107)" fill="white" stroke="black" stroke-opacity="0.15" stroke-width="0.5"/>
<circle cx="518.196" cy="-117.106" r="103.644" transform="rotate(-34.0259 518.196 -117.106)" fill="white" stroke="black" stroke-opacity="0.15" stroke-width="0.5"/>
<circle cx="73.8941" cy="790.872" r="103.644" transform="rotate(-34.0259 73.8941 790.872)" fill="white" stroke="black" stroke-opacity="0.15" stroke-width="0.5"/>
<circle cx="91.6664" cy="778.872" r="103.644" transform="rotate(-34.0259 91.6664 778.872)" fill="white" stroke="black" stroke-opacity="0.15" stroke-width="0.5"/>
<circle cx="109.438" cy="766.873" r="103.644" transform="rotate(-34.0259 109.438 766.873)" fill="white" stroke="black" stroke-opacity="0.15" stroke-width="0.5"/>
<circle cx="127.21" cy="754.874" r="103.644" transform="rotate(-34.0259 127.21 754.874)" fill="white" stroke="black" stroke-opacity="0.15" stroke-width="0.5"/>
<circle cx="144.982" cy="742.875" r="103.644" transform="rotate(-34.0259 144.982 742.875)" fill="white" stroke="black" stroke-opacity="0.15" stroke-width="0.5"/>
<circle cx="162.755" cy="730.876" r="103.644" transform="rotate(-34.0259 162.755 730.876)" fill="white" stroke="black" stroke-opacity="0.15" stroke-width="0.5"/>
<circle cx="180.526" cy="718.877" r="103.644" transform="rotate(-34.0259 180.526 718.877)" fill="white" stroke="black" stroke-opacity="0.15" stroke-width="0.5"/>
<circle cx="198.299" cy="706.878" r="103.644" transform="rotate(-34.0259 198.299 706.878)" fill="white" stroke="black" stroke-opacity="0.15" stroke-width="0.5"/>
<circle cx="216.071" cy="694.879" r="103.644" transform="rotate(-34.0259 216.071 694.879)" fill="white" stroke="black" stroke-opacity="0.15" stroke-width="0.5"/>
<circle cx="233.843" cy="682.88" r="103.644" transform="rotate(-34.0259 233.843 682.88)" fill="white" stroke="black" stroke-opacity="0.15" stroke-width="0.5"/>
<circle cx="251.615" cy="670.881" r="103.644" transform="rotate(-34.0259 251.615 670.881)" fill="white" stroke="black" stroke-opacity="0.15" stroke-width="0.5"/>
<circle cx="269.386" cy="658.881" r="103.644" transform="rotate(-34.0259 269.386 658.881)" fill="white" stroke="black" stroke-opacity="0.15" stroke-width="0.5"/>
<circle cx="287.159" cy="646.883" r="103.644" transform="rotate(-34.0259 287.159 646.883)" fill="white" stroke="black" stroke-opacity="0.15" stroke-width="0.5"/>
<circle cx="304.931" cy="634.883" r="103.644" transform="rotate(-34.0259 304.931 634.883)" fill="white" stroke="black" stroke-opacity="0.15" stroke-width="0.5"/>
<circle cx="322.703" cy="622.884" r="103.644" transform="rotate(-34.0259 322.703 622.884)" fill="white" stroke="black" stroke-opacity="0.15" stroke-width="0.5"/>
<circle cx="340.475" cy="610.885" r="103.644" transform="rotate(-34.0259 340.475 610.885)" fill="white" stroke="black" stroke-opacity="0.15" stroke-width="0.5"/>
<circle cx="358.248" cy="598.886" r="103.644" transform="rotate(-34.0259 358.248 598.886)" fill="white" stroke="black" stroke-opacity="0.15" stroke-width="0.5"/>
<circle cx="376.019" cy="586.887" r="103.644" transform="rotate(-34.0259 376.019 586.887)" fill="white" stroke="black" stroke-opacity="0.15" stroke-width="0.5"/>
<circle cx="393.792" cy="574.888" r="103.644" transform="rotate(-34.0259 393.792 574.888)" fill="white" stroke="black" stroke-opacity="0.15" stroke-width="0.5"/>
<circle cx="411.563" cy="562.889" r="103.644" transform="rotate(-34.0259 411.563 562.889)" fill="white" stroke="black" stroke-opacity="0.15" stroke-width="0.5"/>
<circle cx="429.335" cy="550.89" r="103.644" transform="rotate(-34.0259 429.335 550.89)" fill="white" stroke="black" stroke-opacity="0.15" stroke-width="0.5"/>
<circle cx="447.108" cy="538.891" r="103.644" transform="rotate(-34.0259 447.108 538.891)" fill="white" stroke="black" stroke-opacity="0.15" stroke-width="0.5"/>
<circle cx="464.88" cy="526.892" r="103.644" transform="rotate(-34.0259 464.88 526.892)" fill="white" stroke="black" stroke-opacity="0.15" stroke-width="0.5"/>
<circle cx="482.652" cy="514.893" r="103.644" transform="rotate(-34.0259 482.652 514.893)" fill="white" stroke="black" stroke-opacity="0.15" stroke-width="0.5"/>
<circle cx="500.423" cy="502.894" r="103.644" transform="rotate(-34.0259 500.423 502.894)" fill="white" stroke="black" stroke-opacity="0.15" stroke-width="0.5"/>
<circle cx="518.196" cy="490.894" r="103.644" transform="rotate(-34.0259 518.196 490.894)" fill="white" stroke="black" stroke-opacity="0.15" stroke-width="0.5"/>
</g>
<defs>
<clipPath id="clip0_32_2075">
<rect width="390" height="844" fill="white"/>
</clipPath>
</defs>
</svg>
