<svg width="1045" height="862" viewBox="0 0 1045 862" fill="none" xmlns="http://www.w3.org/2000/svg">
<circle cx="177.753" cy="280.089" r="128.519" transform="rotate(32.9563 177.753 280.089)" fill="white" stroke="black" stroke-opacity="0.1"/>
<circle cx="205.313" cy="292.143" r="128.519" transform="rotate(32.9563 205.313 292.143)" fill="white" stroke="black" stroke-opacity="0.1"/>
<circle cx="232.873" cy="304.197" r="128.519" transform="rotate(32.9563 232.873 304.197)" fill="white" stroke="black" stroke-opacity="0.1"/>
<circle cx="260.434" cy="316.251" r="128.519" transform="rotate(32.9563 260.434 316.251)" fill="white" stroke="black" stroke-opacity="0.1"/>
<circle cx="287.995" cy="328.306" r="128.519" transform="rotate(32.9563 287.995 328.306)" fill="white" stroke="black" stroke-opacity="0.1"/>
<circle cx="315.555" cy="340.36" r="128.519" transform="rotate(32.9563 315.555 340.36)" fill="white" stroke="black" stroke-opacity="0.1"/>
<circle cx="343.116" cy="352.414" r="128.519" transform="rotate(32.9563 343.116 352.414)" fill="white" stroke="black" stroke-opacity="0.1"/>
<circle cx="370.676" cy="364.468" r="128.519" transform="rotate(32.9563 370.676 364.468)" fill="white" stroke="black" stroke-opacity="0.1"/>
<circle cx="398.237" cy="376.522" r="128.519" transform="rotate(32.9563 398.237 376.522)" fill="white" stroke="black" stroke-opacity="0.1"/>
<circle cx="425.798" cy="388.577" r="128.519" transform="rotate(32.9563 425.798 388.577)" fill="white" stroke="black" stroke-opacity="0.1"/>
<circle cx="453.358" cy="400.631" r="128.519" transform="rotate(32.9563 453.358 400.631)" fill="white" stroke="black" stroke-opacity="0.1"/>
<circle cx="480.919" cy="412.685" r="128.519" transform="rotate(32.9563 480.919 412.685)" fill="white" stroke="black" stroke-opacity="0.1"/>
<circle cx="508.48" cy="424.739" r="128.519" transform="rotate(32.9563 508.48 424.739)" fill="white" stroke="black" stroke-opacity="0.1"/>
<circle cx="536.04" cy="436.793" r="128.519" transform="rotate(32.9563 536.04 436.793)" fill="white" stroke="black" stroke-opacity="0.1"/>
<circle cx="563.601" cy="448.847" r="128.519" transform="rotate(32.9563 563.601 448.847)" fill="white" stroke="black" stroke-opacity="0.1"/>
<circle cx="591.161" cy="460.902" r="128.519" transform="rotate(32.9563 591.161 460.902)" fill="white" stroke="black" stroke-opacity="0.1"/>
<circle cx="618.722" cy="472.956" r="128.519" transform="rotate(32.9563 618.722 472.956)" fill="white" stroke="black" stroke-opacity="0.1"/>
<circle cx="646.283" cy="485.01" r="128.519" transform="rotate(32.9563 646.283 485.01)" fill="white" stroke="black" stroke-opacity="0.1"/>
<circle cx="673.843" cy="497.064" r="128.519" transform="rotate(32.9563 673.843 497.064)" fill="white" stroke="black" stroke-opacity="0.1"/>
<circle cx="701.404" cy="509.118" r="128.519" transform="rotate(32.9563 701.404 509.118)" fill="white" stroke="black" stroke-opacity="0.1"/>
<circle cx="728.965" cy="521.172" r="128.519" transform="rotate(32.9563 728.965 521.172)" fill="white" stroke="black" stroke-opacity="0.1"/>
<circle cx="756.526" cy="533.227" r="128.519" transform="rotate(32.9563 756.526 533.227)" fill="white" stroke="black" stroke-opacity="0.1"/>
<circle cx="784.087" cy="545.281" r="128.519" transform="rotate(32.9563 784.087 545.281)" fill="white" stroke="black" stroke-opacity="0.1"/>
<circle cx="811.647" cy="557.335" r="128.519" transform="rotate(32.9563 811.647 557.335)" fill="white" stroke="black" stroke-opacity="0.1"/>
<circle cx="839.208" cy="569.389" r="128.519" transform="rotate(32.9563 839.208 569.389)" fill="white" stroke="black" stroke-opacity="0.1"/>
<circle cx="866.768" cy="581.443" r="128.519" transform="rotate(32.9563 866.768 581.443)" fill="white" stroke="black" stroke-opacity="0.1"/>
</svg>
