<svg width="962" height="773" viewBox="0 0 962 773" fill="none" xmlns="http://www.w3.org/2000/svg">
<circle cx="189.077" cy="583.248" r="136.188" transform="rotate(-34.0259 189.077 583.248)" fill="white" stroke="black" stroke-opacity="0.1"/>
<circle cx="212.43" cy="567.481" r="136.188" transform="rotate(-34.0259 212.43 567.481)" fill="white" stroke="black" stroke-opacity="0.1"/>
<circle cx="235.782" cy="551.714" r="136.188" transform="rotate(-34.0259 235.782 551.714)" fill="white" stroke="black" stroke-opacity="0.1"/>
<circle cx="259.135" cy="535.948" r="136.188" transform="rotate(-34.0259 259.135 535.948)" fill="white" stroke="black" stroke-opacity="0.1"/>
<circle cx="282.487" cy="520.181" r="136.188" transform="rotate(-34.0259 282.487 520.181)" fill="white" stroke="black" stroke-opacity="0.1"/>
<circle cx="305.84" cy="504.414" r="136.188" transform="rotate(-34.0259 305.84 504.414)" fill="white" stroke="black" stroke-opacity="0.1"/>
<circle cx="329.192" cy="488.647" r="136.188" transform="rotate(-34.0259 329.192 488.647)" fill="white" stroke="black" stroke-opacity="0.1"/>
<circle cx="352.545" cy="472.88" r="136.188" transform="rotate(-34.0259 352.545 472.88)" fill="white" stroke="black" stroke-opacity="0.1"/>
<circle cx="375.898" cy="457.113" r="136.188" transform="rotate(-34.0259 375.898 457.113)" fill="white" stroke="black" stroke-opacity="0.1"/>
<circle cx="399.25" cy="441.347" r="136.188" transform="rotate(-34.0259 399.25 441.347)" fill="white" stroke="black" stroke-opacity="0.1"/>
<circle cx="422.603" cy="425.58" r="136.188" transform="rotate(-34.0259 422.603 425.58)" fill="white" stroke="black" stroke-opacity="0.1"/>
<circle cx="445.955" cy="409.813" r="136.188" transform="rotate(-34.0259 445.955 409.813)" fill="white" stroke="black" stroke-opacity="0.1"/>
<circle cx="469.308" cy="394.046" r="136.188" transform="rotate(-34.0259 469.308 394.046)" fill="white" stroke="black" stroke-opacity="0.1"/>
<circle cx="492.66" cy="378.279" r="136.188" transform="rotate(-34.0259 492.66 378.279)" fill="white" stroke="black" stroke-opacity="0.1"/>
<circle cx="516.013" cy="362.512" r="136.188" transform="rotate(-34.0259 516.013 362.512)" fill="white" stroke="black" stroke-opacity="0.1"/>
<circle cx="539.365" cy="346.745" r="136.188" transform="rotate(-34.0259 539.365 346.745)" fill="white" stroke="black" stroke-opacity="0.1"/>
<circle cx="562.718" cy="330.979" r="136.188" transform="rotate(-34.0259 562.718 330.979)" fill="white" stroke="black" stroke-opacity="0.1"/>
<circle cx="586.07" cy="315.212" r="136.188" transform="rotate(-34.0259 586.07 315.212)" fill="white" stroke="black" stroke-opacity="0.1"/>
<circle cx="609.423" cy="299.445" r="136.188" transform="rotate(-34.0259 609.423 299.445)" fill="white" stroke="black" stroke-opacity="0.1"/>
<circle cx="632.776" cy="283.678" r="136.188" transform="rotate(-34.0259 632.776 283.678)" fill="white" stroke="black" stroke-opacity="0.1"/>
<circle cx="656.128" cy="267.911" r="136.188" transform="rotate(-34.0259 656.128 267.911)" fill="white" stroke="black" stroke-opacity="0.1"/>
<circle cx="679.481" cy="252.144" r="136.188" transform="rotate(-34.0259 679.481 252.144)" fill="white" stroke="black" stroke-opacity="0.1"/>
<circle cx="702.833" cy="236.378" r="136.188" transform="rotate(-34.0259 702.833 236.378)" fill="white" stroke="black" stroke-opacity="0.1"/>
<circle cx="726.186" cy="220.611" r="136.188" transform="rotate(-34.0259 726.186 220.611)" fill="white" stroke="black" stroke-opacity="0.1"/>
<circle cx="749.538" cy="204.844" r="136.188" transform="rotate(-34.0259 749.538 204.844)" fill="white" stroke="black" stroke-opacity="0.1"/>
<circle cx="772.891" cy="189.077" r="136.188" transform="rotate(-34.0259 772.891 189.077)" fill="white" stroke="black" stroke-opacity="0.1"/>
</svg>
